# xmcd
#
# Track frame offsets:
#	150
#	22805
#	44862
#	65785
#	88475
#	111167
#
# Disc length: 1783 seconds
#
# Revision: 1
# Processed by: cddbd v1.5PL3 Copyright (c) Steve Scherf et al.
# Submitted via: CDex 1.50Beta5
#
DISCID=5606f506
DTITLE=吉村まさみ - Delight of my love
DYEAR=1900
DGENRE=
TTITLE0=Delight of my love
TTITLE1=美しい人
TTITLE2=White Wings
TTITLE3=Delight of my love -De voice less-
TTITLE4=Delight of my love -Masami less-
TTITLE5=Delight of my love -instrumental-
EXTD=
EXTT0=
EXTT1=
EXTT2=
EXTT3=
EXTT4=
EXTT5=
PLAYORDER=
